<?xml version="1.0" encoding="UTF-8" standalone="no"?>
<svg
   viewBox="0 0 0.74999994 0.74998879"
   width="23.999998"
   height="23.999641"
   version="1.1"
   id="svg46971"
   xmlns="http://www.w3.org/2000/svg"
   xmlns:svg="http://www.w3.org/2000/svg">
  <defs
     id="defs46975" />
  <path
     style="fill:#ffffff;stroke-width:0.5px;stroke-linecap:round;fill-opacity:1"
     d="M 0.1875028,0.74998882 H 0.56249721"
     id="path46959" />
  <path
     d="m 5.5920512e-6,0.74998882 c 0,-0.0562492 0.056249167949,-0.11249832 0.1124983279488,-0.11249832 0,0 0.15974762,0 0.15974762,-0.11249833 h 0.20474695 c 0,0.11249833 0.1604976,0.11249833 0.1604976,0.11249833 0.0562492,0 0.11249833,0.0562492 0.11249833,0.11249832 z"
     id="path46961"
     style="stroke-width:0.999998;fill:#ffffff;fill-opacity:1" />
  <path
     d="m 0.1875028,0 h 0.37499441 v 0.24974628 c 0,0 0,0.19649707 -0.1874972,0.19649707 -0.18749721,0 -0.18749721,-0.19649707 -0.18749721,-0.19649707 z"
     style="stroke-width:0.999998;fill:#ffffff;fill-opacity:1"
     id="path46963" />
  <rect
     x="0.33750054"
     y="0.3749944"
     width="0.074998885"
     height="0.1874972"
     style="stroke-width:0.999998;fill:#ffffff;fill-opacity:1"
     id="rect46965" />
  <path
     style="color:#000000;fill:#ffffff;stroke-width:0.999998;-inkscape-stroke:none;fill-opacity:1"
     d="m 5.5920512e-6,0.03808537 v 0.01757786 c 0,0 -9.516008112e-4,0.05289497 0.021972337949,0.10546718 0.02292392,0.0525722 0.07398466,0.106932 0.16552487,0.106932 v -0.0366205 c -0.0772071,0 -0.11110625,-0.0422482 -0.13036915,-0.0864245 C 0.04199074,0.11028961 0.0432489,0.08821092 0.04248543,0.07470591 H 0.1875028 V 0.03808537 Z"
     id="path46967" />
  <path
     style="color:#000000;fill:#ffffff;stroke-width:0.999998;-inkscape-stroke:none;fill-opacity:1"
     d="m 0.56249721,0.03222608 v 0.03662055 h 0.14501737 c -7.6348e-4,0.013505 4.947e-4,0.0355837 -0.0146483,0.07031145 -0.0192629,0.0441762 -0.053162,0.0864245 -0.13036912,0.0864245 v 0.0366205 c 0.0915402,0 0.14260095,-0.0558246 0.16552488,-0.10839682 0.0229239,-0.0525722 0.0219723,-0.10400233 0.0219723,-0.10400233 V 0.03222608 Z"
     id="path46969" />
</svg>
